<?xml version="1.0" encoding="UTF-8" standalone="no"?>
<svg
   xmlns:dc="http://purl.org/dc/elements/1.1/"
   xmlns:cc="http://creativecommons.org/ns#"
   xmlns:rdf="http://www.w3.org/1999/02/22-rdf-syntax-ns#"
   xmlns:svg="http://www.w3.org/2000/svg"
   xmlns="http://www.w3.org/2000/svg"
   xmlns:sodipodi="http://sodipodi.sourceforge.net/DTD/sodipodi-0.dtd"
   xmlns:inkscape="http://www.inkscape.org/namespaces/inkscape"
   width="210mm"
   height="297mm"
   viewBox="0 0 744.09448819 1052.3622047"
   id="svg2"
   version="1.1"
   inkscape:version="0.91 r13725"
   sodipodi:docname="focus-away-logo.svg">
  <defs
     id="defs4" />
  <sodipodi:namedview
     id="base"
     pagecolor="#ffffff"
     bordercolor="#666666"
     borderopacity="1.0"
     inkscape:pageopacity="0.0"
     inkscape:pageshadow="2"
     inkscape:zoom="0.35"
     inkscape:cx="358.11109"
     inkscape:cy="420.78844"
     inkscape:document-units="px"
     inkscape:current-layer="text4138"
     showgrid="false"
     inkscape:window-width="1920"
     inkscape:window-height="1017"
     inkscape:window-x="-8"
     inkscape:window-y="-8"
     inkscape:window-maximized="1" />
  <metadata
     id="metadata7">
    <rdf:RDF>
      <cc:Work
         rdf:about="">
        <dc:format>image/svg+xml</dc:format>
        <dc:type
           rdf:resource="http://purl.org/dc/dcmitype/StillImage" />
        <dc:title></dc:title>
      </cc:Work>
    </rdf:RDF>
  </metadata>
  <g
     inkscape:label="Layer 1"
     inkscape:groupmode="layer"
     id="layer1">
    <g
       style="font-style:normal;font-weight:normal;font-size:397.07376099px;line-height:125%;font-family:sans-serif;letter-spacing:0px;word-spacing:0px;fill:#ffffff;fill-opacity:1;stroke:none;stroke-width:1px;stroke-linecap:butt;stroke-linejoin:miter;stroke-opacity:1"
       id="text4138">
      <g
         id="g4218">
        <path
           style="opacity:1;fill:#ff6600;fill-opacity:1;stroke:none;stroke-width:3;stroke-miterlimit:4;stroke-dasharray:none;stroke-opacity:0"
           d="M 547.27665,541.67914 A 124.28571,124.28571 0 0 1 422.99094,665.96485 124.28571,124.28571 0 0 1 298.70522,541.67914 124.28571,124.28571 0 0 1 422.99094,417.39342 124.28571,124.28571 0 0 1 547.27665,541.67914 Z"
           id="path4136" />
        <path
           id="path4215"
           style="font-style:normal;font-variant:normal;font-weight:normal;font-stretch:normal;font-size:397.07461548px;line-height:125%;font-family:Consolas;-inkscape-font-specification:'Consolas, Normal';text-align:start;writing-mode:lr-tb;text-anchor:start"
           d="m 529.82107,540.03112 q 0,13.57189 -3.29603,25.20493 -3.10214,11.63305 -9.50032,20.16395 -6.20429,8.5309 -15.51072,13.378 -9.30644,4.8471 -21.32725,4.8471 -8.72479,0 -15.8985,-2.52049 -6.97983,-2.52049 -13.76577,-7.3676 -6.59206,-5.04098 -13.378,-12.60246 -6.78594,-7.56148 -14.92908,-17.64345 -8.91866,10.85751 -16.28626,18.61287 -7.17371,7.56148 -13.95965,12.40858 -6.59206,4.65322 -13.57189,6.97983 -6.78594,2.13272 -14.92908,2.13272 -10.66362,0 -19.3884,-4.26545 -8.72479,-4.45933 -14.92908,-12.40858 -6.20429,-7.94925 -9.6942,-19.00064 -3.29603,-11.05139 -3.29603,-24.42939 0,-13.57189 3.48991,-25.20494 3.6838,-11.63304 10.08197,-20.16394 6.59206,-8.5309 15.70461,-13.378 9.30644,-5.04099 20.35783,-5.04099 6.39818,0 12.40859,1.55107 6.20429,1.35719 12.79635,5.62264 6.78594,4.26545 14.73519,12.2147 7.94924,7.94925 18.03122,20.7456 8.72478,-10.27586 15.89849,-17.83734 7.17371,-7.56148 13.95966,-12.40858 6.97982,-5.04099 13.76577,-7.3676 6.78594,-2.52049 14.73519,-2.52049 9.88809,0 18.61287,3.48991 8.72478,3.48992 15.12296,10.85751 6.39817,7.3676 10.08197,18.80676 3.87768,11.43916 3.87768,27.14377 z m -29.85815,1.93884 q 0,-31.40922 -22.10278,-31.40922 -4.07157,0 -7.94925,1.74496 -3.87768,1.74495 -8.5309,5.42875 -4.45933,3.6838 -9.88809,9.50032 -5.23487,5.62264 -11.82693,13.57189 7.3676,10.08197 13.18412,16.48015 6.01041,6.20429 10.85751,9.6942 4.8471,3.48991 8.5309,4.8471 3.87768,1.16331 6.78594,1.16331 20.93948,0 20.93948,-31.02146 z m -93.64601,0.38777 q -25.5927,-32.57253 -39.74624,-32.57253 -20.55171,0 -20.55171,31.79699 0,31.797 21.9089,31.797 3.29603,0 6.39817,-0.96943 3.10215,-0.96942 7.17372,-4.07156 4.26545,-3.29603 10.08197,-9.50032 6.0104,-6.20429 14.73519,-16.48015 z" />
      </g>
    </g>
  </g>
</svg>
