<?xml version="1.0" encoding="UTF-8" standalone="no"?>
<svg
   xmlns:dc="http://purl.org/dc/elements/1.1/"
   xmlns:cc="http://creativecommons.org/ns#"
   xmlns:rdf="http://www.w3.org/1999/02/22-rdf-syntax-ns#"
   xmlns:svg="http://www.w3.org/2000/svg"
   xmlns="http://www.w3.org/2000/svg"
   xmlns:sodipodi="http://sodipodi.sourceforge.net/DTD/sodipodi-0.dtd"
   xmlns:inkscape="http://www.inkscape.org/namespaces/inkscape"
   width="40"
   height="40"
   viewBox="0 0 39.999999 40.000001"
   id="svg2"
   version="1.1"
   inkscape:version="0.91 r13725"
   sodipodi:docname="logo2.svg">
  <defs
     id="defs4" />
  <sodipodi:namedview
     id="base"
     pagecolor="#ffffff"
     bordercolor="#666666"
     borderopacity="1.0"
     inkscape:pageopacity="0.0"
     inkscape:pageshadow="2"
     inkscape:zoom="7.9195959"
     inkscape:cx="2.8698273"
     inkscape:cy="20.091141"
     inkscape:document-units="px"
     inkscape:current-layer="text4138"
     showgrid="false"
     inkscape:window-width="785"
     inkscape:window-height="691"
     inkscape:window-x="54"
     inkscape:window-y="48"
     inkscape:window-maximized="0"
     units="px" />
  <metadata
     id="metadata7">
    <rdf:RDF>
      <cc:Work
         rdf:about="">
        <dc:format>image/svg+xml</dc:format>
        <dc:type
           rdf:resource="http://purl.org/dc/dcmitype/StillImage" />
        <dc:title />
      </cc:Work>
    </rdf:RDF>
  </metadata>
  <g
     inkscape:label="Layer 1"
     inkscape:groupmode="layer"
     id="layer1"
     transform="translate(0,-1012.3622)">
    <g
       style="font-style:normal;font-weight:normal;font-size:397.07376099px;line-height:125%;font-family:sans-serif;letter-spacing:0px;word-spacing:0px;fill:#ffffff;fill-opacity:1;stroke:none;stroke-width:1px;stroke-linecap:butt;stroke-linejoin:miter;stroke-opacity:1"
       id="text4138">
      <g
         id="g4145">
        <path
           style="opacity:0.6;fill:#ff6600;fill-opacity:1;stroke:none;stroke-width:3;stroke-miterlimit:4;stroke-dasharray:none;stroke-opacity:0"
           d="M 39.824531,1032.3897 A 19.690673,19.690673 0 0 1 20.133858,1052.0803 19.690673,19.690673 0 0 1 0.44318309,1032.3897 19.690673,19.690673 0 0 1 20.133858,1012.699 19.690673,19.690673 0 0 1 39.824531,1032.3897 Z"
           id="path4136"
           inkscape:connector-curvature="0" />
        <path
           id="path4215"
           style="font-style:normal;font-variant:normal;font-weight:normal;font-stretch:normal;font-size:397.07461548px;line-height:125%;font-family:Consolas;-inkscape-font-specification:'Consolas, Normal';text-align:start;writing-mode:lr-tb;text-anchor:start;opacity:1"
           d="m 37.059031,1032.1286 q 0,2.1502 -0.522192,3.9932 -0.491474,1.843 -1.505143,3.1946 -0.98295,1.3515 -2.457374,2.1195 -1.474426,0.7679 -3.378891,0.7679 -1.382275,0 -2.518811,-0.3993 -1.105819,-0.3993 -2.180921,-1.1673 -1.044384,-0.7986 -2.119486,-1.9966 -1.075101,-1.198 -2.365224,-2.7953 -1.41299,1.7202 -2.580244,2.9489 -1.136536,1.198 -2.211637,1.9659 -1.044385,0.7372 -2.150205,1.1058 -1.075101,0.3379 -2.365224,0.3379 -1.6894452,0 -3.0717183,-0.6758 -1.3822747,-0.7065 -2.3652247,-1.9659 -0.9829501,-1.2594 -1.535859,-3.0103 -0.5221924,-1.7508 -0.5221924,-3.8703 0,-2.1502 0.5529089,-3.9933 0.5836271,-1.843 1.5972937,-3.1945 1.0443847,-1.3516 2.4880925,-2.1195 1.4744259,-0.7987 3.2253053,-0.7987 1.013668,0 1.965902,0.2458 0.98295,0.215 2.027335,0.8908 1.075101,0.6757 2.334506,1.9351 1.259404,1.2594 2.856699,3.2868 1.382273,-1.628 2.518809,-2.826 1.136536,-1.198 2.211639,-1.9659 1.105818,-0.7987 2.180921,-1.1673 1.075101,-0.3993 2.334507,-0.3993 1.566577,0 2.94885,0.5529 1.382273,0.5529 2.395941,1.7202 1.013667,1.1672 1.597294,2.9796 0.614343,1.8123 0.614343,4.3004 z m -4.730448,0.3071 q 0,-4.9761 -3.501759,-4.9761 -0.645061,0 -1.259405,0.2764 -0.614344,0.2765 -1.351557,0.8601 -0.706494,0.5836 -1.566577,1.5051 -0.829364,0.8908 -1.873749,2.1502 1.167254,1.5973 2.08877,2.611 0.952233,0.9829 1.720163,1.5359 0.767929,0.5529 1.351556,0.7679 0.614344,0.1843 1.075102,0.1843 3.317456,0 3.317456,-4.9148 z m -14.836403,0.062 q -4.05467,-5.1605 -6.297025,-5.1605 -3.2560225,0 -3.2560225,5.0376 0,5.0376 3.4710425,5.0376 0.522192,0 1.013667,-0.1536 0.491476,-0.1536 1.136537,-0.645 0.675779,-0.5222 1.597294,-1.5052 0.952232,-0.9829 2.334507,-2.6109 z"
           inkscape:connector-curvature="0" />
      </g>
    </g>
  </g>
</svg>
