<?xml version="1.0" encoding="UTF-8" standalone="no"?>
<svg
   xmlns:dc="http://purl.org/dc/elements/1.1/"
   xmlns:cc="http://creativecommons.org/ns#"
   xmlns:rdf="http://www.w3.org/1999/02/22-rdf-syntax-ns#"
   xmlns:svg="http://www.w3.org/2000/svg"
   xmlns="http://www.w3.org/2000/svg"
   xmlns:sodipodi="http://sodipodi.sourceforge.net/DTD/sodipodi-0.dtd"
   xmlns:inkscape="http://www.inkscape.org/namespaces/inkscape"
   width="40"
   height="40"
   viewBox="0 0 39.999999 40.000001"
   id="svg2"
   version="1.1"
   inkscape:version="0.91 r13725"
   sodipodi:docname="logo3.svg">
  <defs
     id="defs4" />
  <sodipodi:namedview
     id="base"
     pagecolor="#ffffff"
     bordercolor="#666666"
     borderopacity="1.0"
     inkscape:pageopacity="0.0"
     inkscape:pageshadow="2"
     inkscape:zoom="3.959798"
     inkscape:cx="29.94935"
     inkscape:cy="12.956083"
     inkscape:document-units="px"
     inkscape:current-layer="text4446"
     showgrid="false"
     inkscape:window-width="946"
     inkscape:window-height="806"
     inkscape:window-x="822"
     inkscape:window-y="197"
     inkscape:window-maximized="0"
     units="px" />
  <metadata
     id="metadata7">
    <rdf:RDF>
      <cc:Work
         rdf:about="">
        <dc:format>image/svg+xml</dc:format>
        <dc:type
           rdf:resource="http://purl.org/dc/dcmitype/StillImage" />
        <dc:title></dc:title>
      </cc:Work>
    </rdf:RDF>
  </metadata>
  <g
     inkscape:label="Layer 1"
     inkscape:groupmode="layer"
     id="layer1"
     transform="translate(0,-1012.3622)">
    <g
       style="font-style:normal;font-weight:normal;font-size:397.07376099px;line-height:125%;font-family:sans-serif;letter-spacing:0px;word-spacing:0px;fill:#ffffff;fill-opacity:1;stroke:none;stroke-width:1px;stroke-linecap:butt;stroke-linejoin:miter;stroke-opacity:1"
       id="text4138">
      <g
         style="font-style:normal;font-variant:normal;font-weight:normal;font-stretch:normal;font-size:3.14097404px;line-height:125%;font-family:'Discoteque St';-inkscape-font-specification:'Discoteque St, Normal';text-align:start;letter-spacing:0px;word-spacing:0px;writing-mode:lr-tb;text-anchor:start;fill:#ff6600;fill-opacity:0.6;stroke:none;stroke-width:1px;stroke-linecap:butt;stroke-linejoin:miter;stroke-opacity:1"
         id="text4137">
        <g
           style="font-style:normal;font-variant:normal;font-weight:bold;font-stretch:condensed;font-size:5.34492826px;line-height:125%;font-family:'Liberation Sans Narrow';-inkscape-font-specification:'Liberation Sans Narrow, Bold Condensed';text-align:start;letter-spacing:0px;word-spacing:0px;writing-mode:lr-tb;text-anchor:start;fill:#000000;fill-opacity:1;stroke:none;stroke-width:1px;stroke-linecap:butt;stroke-linejoin:miter;stroke-opacity:1"
           id="text4446">
          <g
             id="g4479">
            <path
               style="font-style:normal;font-weight:normal;font-size:medium;line-height:125%;font-family:sans-serif;letter-spacing:0px;word-spacing:0px;fill:#000000;fill-opacity:1;stroke:none;stroke-width:3;stroke-linecap:butt;stroke-linejoin:miter;stroke-opacity:0;font-variant:normal;font-stretch:normal;-inkscape-font-specification:'Discoteque St, Normal';text-align:start;writing-mode:lr-tb;text-anchor:start;opacity:0.75;stroke-miterlimit:4;stroke-dasharray:none"
               d="M 30.741584,1026.7237 A 10.741584,10.48905 0 0 1 20,1037.2127 10.741584,10.48905 0 0 1 9.2584158,1026.7237 10.741584,10.48905 0 0 1 20,1016.2347 a 10.741584,10.48905 0 0 1 10.741584,10.489 z"
               id="path4136"
               inkscape:connector-curvature="0" />
            <path
               id="path4215"
               style="font-style:normal;font-weight:normal;font-size:397.07461548px;line-height:125%;font-family:Consolas;letter-spacing:0px;word-spacing:0px;fill:#ffffff;fill-opacity:1;stroke:none;stroke-width:1px;stroke-linecap:butt;stroke-linejoin:miter;stroke-opacity:1;font-variant:normal;font-stretch:normal;-inkscape-font-specification:'Consolas, Normal';text-align:start;writing-mode:lr-tb;text-anchor:start;opacity:1"
               d="m 29.232958,1026.5846 q 0,1.1454 -0.284864,2.1272 -0.268107,0.9817 -0.82108,1.7017 -0.536216,0.72 -1.340538,1.1291 -0.804324,0.409 -1.84324,0.409 -0.754054,0 -1.374053,-0.2127 -0.603242,-0.2127 -1.189728,-0.6218 -0.569729,-0.4254 -1.156214,-1.0636 -0.586485,-0.6381 -1.290268,-1.489 -0.770809,0.9163 -1.407565,1.5709 -0.619999,0.6381 -1.206484,1.0472 -0.569729,0.3927 -1.172972,0.589 -0.586485,0.18 -1.290268,0.18 -0.92162,0 -1.675673,-0.36 -0.754053,-0.3763 -1.290269,-1.0472 -0.536215,-0.6709 -0.837836,-1.6036 -0.284864,-0.9326 -0.284864,-2.0616 0,-1.1454 0.30162,-2.1272 0.318379,-0.9818 0.87135,-1.7017 0.569729,-0.72 1.357295,-1.129 0.804324,-0.4255 1.759457,-0.4255 0.552973,0 1.072432,0.1309 0.536214,0.1146 1.105944,0.4745 0.586485,0.36 1.273511,1.0309 0.687025,0.6708 1.558375,1.7508 0.754053,-0.8672 1.374052,-1.5054 0.619999,-0.6381 1.206485,-1.0472 0.603243,-0.4255 1.189728,-0.6218 0.586485,-0.2127 1.273512,-0.2127 0.854593,0 1.608646,0.2945 0.754052,0.2945 1.307025,0.9164 0.552972,0.6217 0.87135,1.5872 0.335134,0.9654 0.335134,2.2907 z m -2.580537,0.1636 q 0,-2.6507 -1.910266,-2.6507 -0.351892,0 -0.687027,0.1472 -0.335134,0.1473 -0.737296,0.4582 -0.385404,0.3109 -0.854593,0.8018 -0.452432,0.4745 -1.022161,1.1454 0.636756,0.8508 1.139458,1.3908 0.519459,0.5236 0.938377,0.8182 0.418918,0.2945 0.737296,0.409 0.335135,0.098 0.586486,0.098 1.809726,0 1.809726,-2.6181 z m -8.0935,0.033 q -2.211889,-2.749 -3.43513,-2.749 -1.776214,0 -1.776214,2.6835 0,2.6835 1.893511,2.6835 0.284864,0 0.552972,-0.082 0.268108,-0.082 0.619999,-0.3436 0.368649,-0.2782 0.87135,-0.8018 0.519458,-0.5236 1.273512,-1.3908 z"
               inkscape:connector-curvature="0" />
            <path
               inkscape:connector-curvature="0"
               id="path4451"
               style="font-weight:bold"
               d="m 1.5185009,1039.7784 0,1.1379 1.5450183,0 0,0.595 -1.5450183,0 0,1.3493 -0.63157848,0 0,-3.6772 2.22357368,0 0,0.595 -1.5919952,0 z" />
            <path
               inkscape:connector-curvature="0"
               id="path4453"
               style="font-weight:bold"
               d="m 6.4928335,1041.005 q 0,0.4306 -0.1043931,0.783 -0.1043931,0.3523 -0.3027401,0.6028 -0.1957371,0.2506 -0.4802084,0.3863 -0.2818614,0.1357 -0.6394079,0.1357 -0.3784251,0 -0.6628964,-0.1409 -0.2844713,-0.1436 -0.4749887,-0.3967 -0.1905175,-0.2558 -0.2870811,-0.6055 -0.093954,-0.3497 -0.093954,-0.7647 0,-0.4306 0.099174,-0.7777 0.099174,-0.3471 0.2923008,-0.5898 0.1957371,-0.2454 0.4775985,-0.3759 0.2844713,-0.1331 0.6524571,-0.1331 0.3679858,0 0.6524571,0.1331 0.2844713,0.1331 0.4775985,0.3785 0.1931273,0.2453 0.2923008,0.5924 0.1017833,0.3445 0.1017833,0.7725 z m -0.6446276,0 q 0,-0.2897 -0.057416,-0.522 -0.054806,-0.2348 -0.167029,-0.4019 -0.1096128,-0.167 -0.274032,-0.2557 -0.1644191,-0.091 -0.3810349,-0.091 -0.2218354,0 -0.3862546,0.091 -0.1644191,0.089 -0.2766418,0.2557 -0.1122226,0.1671 -0.167029,0.4019 -0.054806,0.2323 -0.054806,0.522 0,0.2871 0.054806,0.5272 0.057416,0.2375 0.167029,0.4097 0.1122227,0.1723 0.2766418,0.2689 0.167029,0.097 0.3836448,0.097 0.2322747,0 0.3966939,-0.097 0.167029,-0.099 0.2740319,-0.2715 0.1096128,-0.1748 0.1591996,-0.4123 0.052196,-0.2401 0.052196,-0.522 z" />
            <path
               inkscape:connector-curvature="0"
               id="path4455"
               style="font-weight:bold"
               d="m 8.3797395,1042.3073 q 0.1774683,0 0.3079597,-0.06 0.1304915,-0.063 0.2244453,-0.1618 0.096564,-0.099 0.1591995,-0.2245 0.062636,-0.1252 0.1043931,-0.2531 l 0.548064,0.2531 q -0.065246,0.1984 -0.1722487,0.3889 -0.107003,0.1905 -0.2688123,0.3367 -0.1591995,0.1461 -0.3810349,0.2375 -0.2218354,0.089 -0.5219657,0.089 -0.3914742,0 -0.6785553,-0.1409 -0.2844713,-0.1436 -0.472379,-0.3967 -0.1879076,-0.2558 -0.2792516,-0.6055 -0.088734,-0.3497 -0.088734,-0.7647 0,-0.4306 0.088734,-0.7777 0.091344,-0.3471 0.274032,-0.5898 0.1852978,-0.2454 0.4671592,-0.3759 0.2818615,-0.1331 0.6628964,-0.1331 0.2949106,0 0.516746,0.076 0.2218354,0.076 0.3810349,0.214 0.1618094,0.1357 0.2662025,0.3237 0.107003,0.1853 0.167029,0.4097 l -0.5558934,0.1853 q -0.028708,-0.1174 -0.091344,-0.2244 -0.062636,-0.1097 -0.1591995,-0.1932 -0.093954,-0.083 -0.2218354,-0.1331 -0.1278816,-0.052 -0.2896909,-0.052 -0.2296649,0 -0.3940841,0.091 -0.1644192,0.089 -0.2714221,0.2557 -0.1043932,0.1671 -0.1565897,0.4019 -0.049587,0.2323 -0.049587,0.522 0,0.2871 0.049587,0.5272 0.052196,0.2375 0.1591995,0.4097 0.1070029,0.1723 0.274032,0.2689 0.167029,0.097 0.4019135,0.097 z" />
            <path
               inkscape:connector-curvature="0"
               id="path4457"
               style="font-weight:bold"
               d="m 11.388871,1042.9128 q -0.281861,0 -0.516746,-0.081 -0.234884,-0.083 -0.404523,-0.2558 -0.169639,-0.1748 -0.266203,-0.4463 -0.09395,-0.2714 -0.09395,-0.6472 l 0,-2.2992 0.631578,0 0,2.2392 q 0,0.2323 0.04698,0.4019 0.04698,0.167 0.133101,0.2766 0.08873,0.107 0.211396,0.1592 0.125272,0.05 0.276642,0.05 0.15398,0 0.281862,-0.052 0.130491,-0.055 0.221835,-0.167 0.09395,-0.1122 0.14615,-0.2845 0.0522,-0.1722 0.0522,-0.4097 l 0,-2.2131 0.631578,0 0,2.2601 q 0,0.3784 -0.101783,0.655 -0.09917,0.2767 -0.279252,0.4594 -0.180078,0.18 -0.428011,0.2688 -0.247934,0.086 -0.542845,0.086 z" />
            <path
               inkscape:connector-curvature="0"
               id="path4459"
               style="font-weight:bold"
               d="m 15.757724,1041.801 q 0,0.2506 -0.07569,0.4567 -0.07308,0.2036 -0.232275,0.3497 -0.15659,0.1462 -0.401914,0.2271 -0.242714,0.078 -0.581991,0.078 -0.300131,0 -0.529795,-0.065 -0.227056,-0.065 -0.391475,-0.1932 -0.164419,-0.1279 -0.266202,-0.3158 -0.09917,-0.1905 -0.146151,-0.4358 l 0.6107,-0.1227 q 0.0261,0.1227 0.07569,0.2245 0.04959,0.1018 0.135711,0.1774 0.08612,0.073 0.214006,0.1149 0.130492,0.039 0.315789,0.039 0.321009,0 0.490648,-0.1174 0.169639,-0.1201 0.169639,-0.3732 0,-0.1514 -0.06786,-0.248 -0.06785,-0.096 -0.182687,-0.1592 -0.112223,-0.063 -0.260983,-0.1043 -0.146151,-0.042 -0.30796,-0.081 0,0 -0.258373,-0.076 -0.127882,-0.039 -0.245324,-0.094 -0.114832,-0.055 -0.216616,-0.1305 -0.09917,-0.076 -0.174858,-0.1853 -0.07308,-0.1122 -0.114833,-0.261 -0.04176,-0.1487 -0.04176,-0.3497 0,-0.274 0.08873,-0.4698 0.09134,-0.1957 0.250544,-0.3183 0.161809,-0.1253 0.381035,-0.1827 0.219225,-0.058 0.480208,-0.058 0.294911,0 0.506307,0.058 0.211396,0.055 0.352327,0.1696 0.14354,0.1148 0.224445,0.2897 0.08351,0.1722 0.122662,0.4045 l -0.6107,0.1018 q -0.04698,-0.2375 -0.193127,-0.3575 -0.143541,-0.1201 -0.412353,-0.1201 -0.167029,0 -0.279252,0.036 -0.109613,0.034 -0.174858,0.094 -0.06525,0.06 -0.09395,0.1409 -0.0261,0.078 -0.0261,0.1671 0,0.1357 0.0522,0.2244 0.05481,0.086 0.15137,0.1461 0.09656,0.057 0.229665,0.099 0.133101,0.039 0.294911,0.081 0.14093,0.037 0.279251,0.078 0.138321,0.039 0.263593,0.094 0.127882,0.055 0.237494,0.1331 0.109613,0.078 0.187908,0.1931 0.0809,0.1122 0.125272,0.2688 0.04698,0.1566 0.04698,0.3706 z" />
            <path
               inkscape:connector-curvature="0"
               id="path4461"
               style="font-weight:bold"
               d="m 18.351893,1042.8606 -0.266202,-0.9395 -1.148325,0 -0.266202,0.9395 -0.631579,0 1.098738,-3.6772 0.743801,0 1.096128,3.6772 -0.626359,0 z m -0.704653,-2.5759 q 0,0 -0.0522,-0.1853 -0.02349,-0.091 -0.04176,-0.167 l -0.03132,-0.1279 q -0.01044,-0.05 -0.01044,-0.055 -0.0026,0.01 -0.01305,0.057 -0.01044,0.05 -0.02871,0.1253 -0.01827,0.076 -0.04176,0.167 l -0.0522,0.1853 -0.297521,1.057 0.866463,0 -0.29752,-1.057 z" />
            <path
               inkscape:connector-curvature="0"
               id="path4463"
               style="font-weight:bold"
               d="m 22.206609,1042.8606 -0.749021,0 -0.409743,-2.127 q -0.01827,-0.097 -0.03915,-0.2297 l -0.04437,-0.2583 q -0.02349,-0.1436 -0.04176,-0.2976 0,0 -0.04698,0.3002 0,0 -0.02088,0.1278 -0.01044,0.068 -0.02349,0.1305 l -0.02088,0.1227 q -0.01044,0.057 -0.02088,0.1044 l -0.407133,2.127 -0.749021,0 -0.775119,-3.6772 0.639408,0 0.375816,2.0461 0.06003,0.3288 0.0522,0.2897 q 0.0261,0.1487 0.04698,0.2845 l 0.06264,-0.3759 q 0,0 0.0261,-0.1618 l 0.03132,-0.1644 0.0261,-0.1566 0.02349,-0.1331 0.373205,-1.9573 0.707264,0 0.381035,1.9573 q 0.01305,0.063 0.02349,0.1383 l 0.0261,0.1619 q 0.01305,0.081 0.0261,0.1644 0.01305,0.081 0.02349,0.1592 l 0.0522,0.368 q 0,0 0.0522,-0.3028 0,0 0.05481,-0.2923 0.02871,-0.1592 0.06003,-0.3079 l 0.362766,-2.0461 0.639408,0 -0.777729,3.6772 z" />
            <path
               inkscape:connector-curvature="0"
               id="path4465"
               style="font-weight:bold"
               d="m 25.168764,1042.8606 -0.266203,-0.9395 -1.148324,0 -0.266202,0.9395 -0.631579,0 1.098738,-3.6772 0.743801,0 1.096128,3.6772 -0.626359,0 z m -0.704654,-2.5759 q 0,0 -0.0522,-0.1853 -0.02349,-0.091 -0.04176,-0.167 l -0.03132,-0.1279 q -0.01044,-0.05 -0.01044,-0.055 -0.0026,0.01 -0.01305,0.057 -0.01044,0.05 -0.02871,0.1253 -0.01827,0.076 -0.04176,0.167 l -0.0522,0.1853 -0.29752,1.057 0.866463,0 -0.297521,-1.057 z" />
            <path
               inkscape:connector-curvature="0"
               id="path4467"
               style="font-weight:bold"
               d="m 27.290555,1041.3521 0,1.5085 -0.628969,0 0,-1.5085 -1.072639,-2.1687 0.660286,0 0.722923,1.5554 0.733362,-1.5554 0.660286,0 -1.075249,2.1687 z" />
            <path
               inkscape:connector-curvature="0"
               id="path4469"
               style="font-weight:bold"
               d="m 28.253581,1042.8606 0,-0.796 0.618529,0 0,0.796 -0.618529,0 z" />
            <path
               inkscape:connector-curvature="0"
               id="path4471"
               style="font-weight:bold"
               d="m 30.87646,1042.3073 q 0.177468,0 0.30796,-0.06 0.130491,-0.063 0.224445,-0.1618 0.09656,-0.099 0.159199,-0.2245 0.06264,-0.1252 0.104393,-0.2531 l 0.548064,0.2531 q -0.06524,0.1984 -0.172248,0.3889 -0.107003,0.1905 -0.268813,0.3367 -0.159199,0.1461 -0.381035,0.2375 -0.221835,0.089 -0.521965,0.089 -0.391474,0 -0.678556,-0.1409 -0.284471,-0.1436 -0.472378,-0.3967 -0.187908,-0.2558 -0.279252,-0.6055 -0.08873,-0.3497 -0.08873,-0.7647 0,-0.4306 0.08873,-0.7777 0.09134,-0.3471 0.274032,-0.5898 0.185298,-0.2454 0.467159,-0.3759 0.281862,-0.1331 0.662897,-0.1331 0.29491,0 0.516746,0.076 0.221835,0.076 0.381034,0.214 0.16181,0.1357 0.266203,0.3237 0.107003,0.1853 0.167029,0.4097 l -0.555893,0.1853 q -0.02871,-0.1174 -0.09134,-0.2244 -0.06264,-0.1097 -0.1592,-0.1932 -0.09395,-0.083 -0.221835,-0.1331 -0.127882,-0.052 -0.289691,-0.052 -0.229665,0 -0.394084,0.091 -0.16442,0.089 -0.271423,0.2557 -0.104393,0.1671 -0.156589,0.4019 -0.04959,0.2323 -0.04959,0.522 0,0.2871 0.04959,0.5272 0.0522,0.2375 0.159199,0.4097 0.107003,0.1723 0.274032,0.2689 0.167029,0.097 0.401914,0.097 z" />
            <path
               inkscape:connector-curvature="0"
               id="path4473"
               style="font-weight:bold"
               d="m 35.56632,1041.005 q 0,0.4306 -0.104393,0.783 -0.104393,0.3523 -0.30274,0.6028 -0.195737,0.2506 -0.480209,0.3863 -0.281861,0.1357 -0.639407,0.1357 -0.378426,0 -0.662897,-0.1409 -0.284471,-0.1436 -0.474989,-0.3967 -0.190517,-0.2558 -0.287081,-0.6055 -0.09395,-0.3497 -0.09395,-0.7647 0,-0.4306 0.09917,-0.7777 0.09917,-0.3471 0.292301,-0.5898 0.195737,-0.2454 0.477598,-0.3759 0.284472,-0.1331 0.652457,-0.1331 0.367986,0 0.652457,0.1331 0.284472,0.1331 0.477599,0.3785 0.193127,0.2453 0.292301,0.5924 0.101783,0.3445 0.101783,0.7725 z m -0.644627,0 q 0,-0.2897 -0.05742,-0.522 -0.05481,-0.2348 -0.167029,-0.4019 -0.109613,-0.167 -0.274032,-0.2557 -0.164419,-0.091 -0.381035,-0.091 -0.221835,0 -0.386254,0.091 -0.164419,0.089 -0.276642,0.2557 -0.112223,0.1671 -0.167029,0.4019 -0.05481,0.2323 -0.05481,0.522 0,0.2871 0.05481,0.5272 0.05742,0.2375 0.167029,0.4097 0.112223,0.1723 0.276642,0.2689 0.167029,0.097 0.383645,0.097 0.232274,0 0.396693,-0.097 0.167029,-0.099 0.274032,-0.2715 0.109613,-0.1748 0.1592,-0.4123 0.0522,-0.2401 0.0522,-0.522 z" />
            <path
               inkscape:connector-curvature="0"
               id="path4475"
               style="font-weight:bold"
               d="m 38.551964,1042.8606 0,-2.2288 q 0,-0.1331 0.0026,-0.274 0.0026,-0.141 0.0078,-0.2584 0,0 0.01044,-0.2688 0,0 -0.08612,0.3915 0,0 -0.03654,0.1618 l -0.03654,0.1618 -0.03393,0.1461 -0.03132,0.1175 -0.542844,2.0513 -0.451501,0 -0.542844,-2.0513 q -0.01305,-0.05 -0.02871,-0.1175 l -0.03393,-0.1461 -0.03915,-0.1618 -0.03654,-0.1618 q 0,0 -0.09134,-0.3915 0.0052,0.1514 0.01305,0.2975 0.0052,0.1253 0.0078,0.2636 0.0052,0.1383 0.0052,0.2401 l 0,2.2288 -0.561113,0 0,-3.6772 0.845585,0 0.540234,2.0565 q 0.02088,0.081 0.04437,0.1983 l 0.04959,0.2271 q 0,0 0.05481,0.2662 0,0 0.05742,-0.261 0,0 0.0261,-0.1122 l 0.0261,-0.1122 q 0.01305,-0.055 0.0261,-0.1044 l 0.02349,-0.089 0.529795,-2.0695 0.842975,0 0,3.6772 -0.561114,0 z" />
          </g>
        </g>
      </g>
    </g>
  </g>
</svg>
