<?xml version="1.0" encoding="UTF-8" standalone="no"?>
<svg
   xmlns:dc="http://purl.org/dc/elements/1.1/"
   xmlns:cc="http://creativecommons.org/ns#"
   xmlns:rdf="http://www.w3.org/1999/02/22-rdf-syntax-ns#"
   xmlns:svg="http://www.w3.org/2000/svg"
   xmlns="http://www.w3.org/2000/svg"
   xmlns:sodipodi="http://sodipodi.sourceforge.net/DTD/sodipodi-0.dtd"
   xmlns:inkscape="http://www.inkscape.org/namespaces/inkscape"
   id="svg2"
   height="15"
   width="40"
   version="1.1"
   inkscape:version="0.91 r"
   sodipodi:docname="logo.svg">
  <defs
     id="defs21" />
  <sodipodi:namedview
     pagecolor="#ffffff"
     bordercolor="#666666"
     borderopacity="1"
     objecttolerance="10"
     gridtolerance="10"
     guidetolerance="10"
     inkscape:pageopacity="0"
     inkscape:pageshadow="2"
     inkscape:window-width="1243"
     inkscape:window-height="953"
     id="namedview19"
     showgrid="false"
     inkscape:zoom="11.313709"
     inkscape:cx="11.785231"
     inkscape:cy="12.266646"
     inkscape:window-x="639"
     inkscape:window-y="20"
     inkscape:window-maximized="0"
     inkscape:current-layer="svg2" />
  <metadata
     id="metadata4">
    <rdf:RDF>
      <cc:Work
         rdf:about="">
        <dc:format>image/svg+xml</dc:format>
        <dc:type
           rdf:resource="http://purl.org/dc/dcmitype/StillImage" />
        <dc:title></dc:title>
      </cc:Work>
    </rdf:RDF>
  </metadata>
  <g
     transform="matrix(0.93933946,0,0,0.7398655,2.7130523,0.73034171)"
     style="font-style:oblique;font-variant:normal;font-weight:600;font-stretch:normal;font-size:8.53918171px;line-height:125%;font-family:'URW Gothic L';-inkscape-font-specification:'URW Gothic L, Semi-Bold Oblique';text-align:start;letter-spacing:0px;word-spacing:0px;writing-mode:lr-tb;text-anchor:start;fill:#000000;fill-opacity:1;stroke:none;stroke-width:1px;stroke-linecap:butt;stroke-linejoin:miter;stroke-opacity:1"
     id="text4144">
    <path
       d="m 4.5218618,8.103241 1.1698678,0 0.4781942,-2.5873721 1.9469335,0 0.2049403,-1.127172 -1.9469334,0 0.281793,-1.4687392 2.0408644,0 0.2049404,-1.127172 -3.2107324,0 -1.1698678,6.3104553 z"
       id="path4176"
       inkscape:connector-curvature="0" />
    <path
       d="m 12.81741,1.6817763 c -1.110094,0 -2.168952,0.4781942 -2.9630962,1.3406515 -0.6404386,0.7002129 -1.033241,1.6566013 -1.033241,2.5190587 0,1.554131 1.1613287,2.6727638 2.7752342,2.6727638 2.066482,0 3.919484,-1.8273849 3.919484,-3.8597101 0,-1.5626703 -1.127172,-2.6727639 -2.698381,-2.6727639 z m -0.230558,1.127172 c 1.007623,0 1.733454,0.7172913 1.733454,1.7163755 0,0.5123509 -0.204941,1.1015545 -0.537969,1.5455919 -0.486733,0.6489778 -1.204024,1.0161626 -1.98109,1.0161626 -1.04178,0 -1.784689,-0.7258304 -1.784689,-1.741993 0,-0.4952726 0.21348,-1.0673977 0.563586,-1.5199744 0.503812,-0.657517 1.212564,-1.0161626 2.006708,-1.0161626 z"
       id="path4178"
       inkscape:connector-curvature="0" />
    <path
       d="m 20.655044,6.3441695 c -0.640438,0.5465077 -1.093015,0.7429088 -1.707836,0.7429088 -1.016163,0 -1.750532,-0.7429088 -1.750532,-1.7761498 0,-0.4781941 0.179323,-1.0076234 0.495272,-1.4345825 0.503812,-0.6831345 1.229643,-1.0673977 2.032326,-1.0673977 0.444037,0 0.870996,0.1280877 1.135711,0.3330281 0.136627,0.1110094 0.222019,0.2134795 0.367185,0.4611158 l 1.315034,0 C 22.388498,3.0395062 22.217715,2.7320957 21.867608,2.4076068 21.363797,1.9379518 20.663584,1.6817763 19.895057,1.6817763 c -2.006707,0 -3.893867,1.8530025 -3.893867,3.8340926 0,0.6660562 0.256176,1.3662691 0.674596,1.8359241 0.495272,0.563586 1.221103,0.8624573 2.08356,0.8624573 1.297956,0 2.587372,-0.7343696 3.270507,-1.8700808 l -1.374809,0 z"
       id="path4180"
       inkscape:connector-curvature="0" />
    <path
       d="m 23.620675,1.7927857 -0.734369,3.996337 c -0.05978,0.3074106 -0.08539,0.5806644 -0.08539,0.8112223 0,0.9307708 0.742909,1.6139053 1.759071,1.6139053 0.674596,0 1.391887,-0.3159497 1.861542,-0.8112222 0.367185,-0.3928024 0.597743,-0.9051533 0.72583,-1.6139054 l 0.73437,-3.996337 -1.169868,0 -0.73437,3.996337 C 25.900637,6.224621 25.806706,6.4637181 25.653,6.6601193 c -0.213479,0.2647146 -0.546507,0.426959 -0.888074,0.426959 -0.42696,0 -0.785605,-0.3159497 -0.785605,-0.7002129 0,-0.1195485 0.02562,-0.3244889 0.07685,-0.5977427 l 0.73437,-3.996337 -1.169868,0 z"
       id="path4182"
       inkscape:connector-curvature="0" />
    <path
       d="m 27.776054,6.3014736 c -0.0085,0.1366269 -0.01708,0.2476363 -0.01708,0.3415673 0,0.4184199 0.187862,0.8709965 0.478194,1.1357112 0.290332,0.2647146 0.802683,0.4354982 1.289417,0.4354982 1.255259,0 2.408049,-1.1357111 2.408049,-2.3738925 0,-0.7429088 -0.384263,-1.1869462 -1.323573,-1.5370527 C 30.124329,4.1239823 30.073094,4.0983647 29.962085,4.0215121 29.80838,3.9105027 29.705909,3.7397191 29.705909,3.5860138 c 0,-0.426959 0.350107,-0.7770655 0.777066,-0.7770655 0.230558,0 0.426959,0.093931 0.503812,0.2476363 0.05124,0.1024702 0.05977,0.1537052 0.05977,0.4184199 l 1.204025,0 c 0.02562,-0.1622445 0.03416,-0.2988714 0.03416,-0.4013416 0,-0.7941439 -0.683134,-1.3918866 -1.596827,-1.3918866 -1.14425,0 -2.177491,0.9990843 -2.177491,2.1006387 0,0.6831346 0.324489,1.127172 1.033241,1.408965 0.802683,0.3244889 0.845379,0.3501065 1.007623,0.4867334 0.119549,0.1110093 0.187862,0.2903321 0.187862,0.4867333 0,0.5123509 -0.461115,0.9222316 -1.024701,0.9222316 -0.452577,0 -0.725831,-0.2305579 -0.725831,-0.6062819 0,-0.051235 0,-0.1110093 0.0085,-0.1793228 l -1.221103,0 z"
       id="path4184"
       inkscape:connector-curvature="0" />
  </g>
  <g
     transform="matrix(0.98146928,0,0,0.7164547,2.0673084,1.7459363)"
     style="font-style:oblique;font-variant:normal;font-weight:600;font-stretch:normal;font-size:8.81818008px;line-height:125%;font-family:'URW Gothic L';-inkscape-font-specification:'URW Gothic L, Semi-Bold Oblique';text-align:start;letter-spacing:0px;word-spacing:0px;writing-mode:lr-tb;text-anchor:start;fill:#000000;fill-opacity:1;stroke:none;stroke-width:1px;stroke-linecap:butt;stroke-linejoin:miter;stroke-opacity:1"
     id="text4144-1">
    <path
       d="m 3.9902901,15.591969 1.3315452,0 1.0317271,-1.684273 2.3191814,0 0.3879999,1.684273 1.3315453,0 -1.5255453,-6.5166355 -0.9523634,0 -3.9240902,6.5166355 z m 3.0246358,-2.848273 1.0581816,-1.966454 0.3350909,1.966454 -1.3932725,0 z"
       id="path4167"
       inkscape:connector-curvature="0" />
    <path
       d="m 12.431355,15.591969 0.952364,0 1.878272,-4.312091 0.246909,4.312091 0.961182,0 3.112817,-6.5166355 -1.234545,0 -2.001727,4.5501805 -0.246909,-4.5501805 -0.881818,0 -1.957636,4.5501805 -0.299818,-4.5501805 -1.234545,0 0.705454,6.5166355 z"
       id="path4169"
       inkscape:connector-curvature="0" />
    <path
       d="m 18.457617,15.591969 1.331545,0 1.031728,-1.684273 2.319181,0 0.388,1.684273 1.331545,0 -1.525545,-6.5166355 -0.952364,0 -3.92409,6.5166355 z m 3.024636,-2.848273 1.058182,-1.966454 0.33509,1.966454 -1.393272,0 z"
       id="path4171"
       inkscape:connector-curvature="0" />
    <path
       d="m 27.092682,15.591969 1.20809,0 0.449727,-2.407364 2.901182,-4.1092715 -1.305091,0 -2.001727,2.9981815 -0.881818,-2.9981815 -1.305091,0 1.384455,4.1092715 -0.449727,2.407364 z"
       id="path4173"
       inkscape:connector-curvature="0" />
  </g>
</svg>
