<?xml version="1.0" encoding="UTF-8" standalone="no"?>
<svg
   xmlns:dc="http://purl.org/dc/elements/1.1/"
   xmlns:cc="http://creativecommons.org/ns#"
   xmlns:rdf="http://www.w3.org/1999/02/22-rdf-syntax-ns#"
   xmlns:svg="http://www.w3.org/2000/svg"
   xmlns="http://www.w3.org/2000/svg"
   xmlns:sodipodi="http://sodipodi.sourceforge.net/DTD/sodipodi-0.dtd"
   xmlns:inkscape="http://www.inkscape.org/namespaces/inkscape"
   id="svg2"
   height="50"
   width="100"
   version="1.1"
   inkscape:version="0.48.4 r9939"
   sodipodi:docname="logo.svg">
  <defs
     id="defs21" />
  <sodipodi:namedview
     pagecolor="#ffffff"
     bordercolor="#666666"
     borderopacity="1"
     objecttolerance="10"
     gridtolerance="10"
     guidetolerance="10"
     inkscape:pageopacity="0"
     inkscape:pageshadow="2"
     inkscape:window-width="1600"
     inkscape:window-height="850"
     id="namedview19"
     showgrid="false"
     inkscape:zoom="2.85"
     inkscape:cx="4.9122807"
     inkscape:cy="53.070175"
     inkscape:window-x="0"
     inkscape:window-y="0"
     inkscape:window-maximized="1"
     inkscape:current-layer="text2998" />
  <metadata
     id="metadata4">
    <rdf:RDF>
      <cc:Work
         rdf:about="">
        <dc:format>image/svg+xml</dc:format>
        <dc:type
           rdf:resource="http://purl.org/dc/dcmitype/StillImage" />
        <dc:title />
      </cc:Work>
    </rdf:RDF>
  </metadata>
  <rect
     id="rect2995"
     opacity="0.55"
     ry="4.8241"
     height="49.969"
     width="99.917"
     y="0.07153"
     x="0.079036"
     fill="#FFF" />
  <path
     sodipodi:type="arc"
     style="opacity:0.59656647;fill:#ff6600;fill-opacity:1;stroke:none"
     id="path3774"
     sodipodi:cx="-25.789474"
     sodipodi:cy="66.666664"
     sodipodi:rx="9.6491232"
     sodipodi:ry="9.6491232"
     d="m -16.140351,66.666664 a 9.6491232,9.6491232 0 1 1 -19.298247,0 9.6491232,9.6491232 0 1 1 19.298247,0 z"
     transform="translate(44.210526,-47.719298)" />
  <path
     id="path8"
     opacity="0.7"
     d="m18.092,2.3878c-9.278,0-16.799,7.5202-16.799,16.799,0,9.2792,7.5206,16.798,16.799,16.798,9.2792,0,16.799-7.5198,16.799-16.798,0-9.2792-7.5199-16.799-16.799-16.799zm0,3.2683c2.5946,0,3.8021,0.64379,3.8021,2.6898,0,2.0458-3.0081,3.97-3.8021,3.97-0.79674,0-3.8057-1.9242-3.8057-3.97,0-2.046,1.2111-2.6898,3.8057-2.6898zm-11.216,14.089c-1.9466-0.631-2.1878-1.978-1.3891-4.444,0.80074-2.4698,1.7842-3.4238,3.7329-2.7942,1.9419,0.631,2.8499,4.086,2.6019,4.841-0.242,0.756-2.9986,3.026-4.9457,2.397zm8.1267,10.395c-1.1243,1.7131-2.4862,1.5975-4.6628,0.18122-2.1671-1.4171-2.8294-2.6171-1.7131-4.3285,1.1163-1.7159,4.6848-1.6834,5.3512-1.2491,0.66755,0.43359,2.135,3.6942,1.0247,5.3964zm3.089-8.433c-1.3919,0-2.5195-1.1271-2.5195-2.5197,0-1.3927,1.1267-2.5198,2.5195-2.5198,1.3943,0,2.5202,1.1267,2.5202,2.5198-0.000401,1.3922-1.1259,2.5197-2.5202,2.5197zm7.897,8.3878c-2.1122,1.4991-3.4733,1.6779-4.6548,0.01615-1.1871-1.6671,0.1552-4.9776,0.79714-5.4353,0.64955-0.46463,4.2204-0.63276,5.4,1.0232,1.1847,1.6726,0.57476,2.899-1.5423,4.4029zm3.3114-10.349c-1.945,0.62881-4.702-1.6407-4.944-2.3966-0.24998-0.75584,0.66035-4.2104,2.5998-4.8412,1.9507-0.62881,2.9342,0.32477,3.7333,2.7942,0.79834,2.463,0.55795,3.8126-1.3891,4.4436zm15.511,23.802-1.174,3.542c-0.28198-0.09169-6.8807-2.3441-6.8807-8.3242,0-7.0627,5.598-8.7257,5.598-14.982,0-2.8466-2.6506-5.8724-6.0248-8.547-0.51316-2.3799-1.4759-4.5937-2.8034-6.5418,5.8248,3.5761,12.562,9.0208,12.562,15.089,0,3.8821-1.6498,6.3295-3.1062,8.4885-1.3391,1.9844-2.4918,3.6958-2.4918,6.494,0.000399,3.2601,4.2765,4.7661,4.3213,4.7812z" />
  <g
     line-height="125%"
     style="font-size:16px;font-style:normal;font-variant:normal;font-weight:bold;font-stretch:normal;text-align:start;line-height:125%;letter-spacing:0px;word-spacing:0px;writing-mode:lr-tb;text-anchor:start;opacity:0.7;fill:#000000;stroke:#000000;stroke-width:0.5;stroke-miterlimit:4;stroke-dasharray:none;font-family:Sawasdee"
     id="text2997"
     transform="translate(49.044338,-4.3157895)">
    <g
       style="font-size:14px;font-weight:normal;line-height:125%;fill:#000000;fill-opacity:1;stroke:none;font-family:Sans;-inkscape-font-specification:Sans"
       id="text2998">
      <path
         d="m 6.1259444,14.654718 0,-1.984 -6.89600004,0 0,11.2 2.04800004,0 0,-4.848 3.744,0 0,-1.984 -3.744,0 0,-2.384 4.848,0"
         style="font-size:16px;font-weight:bold;line-height:125%;font-family:Cabin;-inkscape-font-specification:Cabin Bold"
         id="path3782" />
      <path
         d="m 12.390444,24.094718 c 3.199997,0 5.52,-2.304004 5.52,-5.824 0,-3.519996 -2.320003,-5.824 -5.52,-5.824 -3.1999964,0 -5.5199996,2.304004 -5.5199996,5.824 0,3.519996 2.3200032,5.824 5.5199996,5.824 m 0,-9.68 c 2.175998,0 3.28,1.616002 3.28,3.856 0,2.239998 -1.104002,3.856 -3.28,3.856 -2.175997,0 -3.2799996,-1.616002 -3.2799996,-3.856 0,-2.239998 1.1040026,-3.856 3.2799996,-3.856"
         style="font-size:16px;font-weight:bold;line-height:125%;font-family:Cabin;-inkscape-font-specification:Cabin Bold"
         id="path3784" />
      <path
         d="m 24.546694,24.094718 c 1.167999,0 2.368001,-0.256 3.184,-0.656 l -0.224,-1.952 c -0.927999,0.368 -1.792001,0.64 -2.96,0.64 -2.175997,0 -3.28,-1.616002 -3.28,-3.856 0,-2.239998 1.104003,-3.856 3.28,-3.856 1.167999,0 2.032001,0.272 2.96,0.64 l 0.224,-1.952 c -0.815999,-0.4 -2.016001,-0.656 -3.184,-0.656 -3.199996,0 -5.52,2.304004 -5.52,5.824 0,3.519996 2.320004,5.824 5.52,5.824"
         style="font-size:16px;font-weight:bold;line-height:125%;font-family:Cabin;-inkscape-font-specification:Cabin Bold"
         id="path3786" />
      <path
         d="m 33.960694,24.094718 c 3.151997,0 4.64,-1.984003 4.64,-5.024 l 0,-6.4 -2.048,0 0,5.712 c 0,2.079998 -0.432002,3.744 -2.592,3.744 -2.159997,0 -2.592,-1.664002 -2.592,-3.744 l 0,-5.712 -2.048,0 0,6.4 c 0,3.039997 1.488004,5.024 4.64,5.024"
         style="font-size:16px;font-weight:bold;line-height:125%;font-family:Cabin;-inkscape-font-specification:Cabin Bold"
         id="path3788" />
      <path
         d="m 44.196694,24.094718 c 3.775997,0 4.336,-1.984001 4.336,-3.264 0,-2.463998 -2.128001,-3.104001 -3.872,-3.632 -1.215998,-0.368 -2.256,-0.720001 -2.256,-1.616 0,-0.959999 1.184001,-1.184 2.048,-1.184 1.071999,0 2.080002,0.352001 3.28,1.008 l 0.208,-2.096 c -0.575999,-0.384 -2.032001,-0.864 -3.568,-0.864 -3.023997,0 -4.048,1.872001 -4.048,3.36 0,1.999998 1.728002,2.560001 3.312,3.104 1.359999,0.464 2.608,0.864001 2.608,2 0,0.911999 -0.800001,1.216 -2,1.216 -1.679998,0 -2.912,-0.592001 -3.52,-1.184 l -0.24,2.336 c 0.64,0.416 2.016002,0.816 3.712,0.816"
         style="font-size:16px;font-weight:bold;line-height:125%;font-family:Cabin;-inkscape-font-specification:Cabin Bold"
         id="path3790" />
    </g>
    <g
       style="font-size:12.41156387px;font-weight:normal;line-height:125%;fill:#ff6600;fill-opacity:1;stroke:none;font-family:Sans"
       id="text3002">
      <path
         d="m 12.344319,42.870377 -3.9839998,-11.2 -1.936,0 -3.984,11.2 2.128,0 0.96,-2.704 3.728,0 0.9599998,2.704 2.128,0 m -3.7919998,-4.688 -2.32,0 1.152,-3.28 1.168,3.28"
         style="font-size:16px;font-variant:normal;font-weight:bold;font-stretch:normal;text-align:start;line-height:125%;writing-mode:lr-tb;text-anchor:start;font-family:Cabin;-inkscape-font-specification:Cabin Bold"
         id="path3793" />
      <path
         d="m 27.141819,31.670377 -2.128,0 -2.144,7.744 -2.592,-7.744 -1.424,0 -2.496,7.952 -2.24,-7.952 -2.128,0 3.152,11.2 1.936,0 2.48,-7.472 2.496,7.472 1.808,0 3.28,-11.2"
         style="font-size:16px;font-variant:normal;font-weight:bold;font-stretch:normal;text-align:start;line-height:125%;writing-mode:lr-tb;text-anchor:start;font-family:Cabin;-inkscape-font-specification:Cabin Bold"
         id="path3795" />
      <path
         d="m 36.625569,42.870377 -3.984,-11.2 -1.936,0 -3.984,11.2 2.128,0 0.96,-2.704 3.728,0 0.96,2.704 2.128,0 m -3.792,-4.688 -2.32,0 1.152,-3.28 1.168,3.28"
         style="font-size:16px;font-variant:normal;font-weight:bold;font-stretch:normal;text-align:start;line-height:125%;writing-mode:lr-tb;text-anchor:start;font-family:Cabin;-inkscape-font-specification:Cabin Bold"
         id="path3797" />
      <path
         d="m 45.322319,31.670377 -2.176,0 -2.72,4.416 -2.72,-4.416 -2.176,0 3.872,6.24 0,4.96 2.048,0 0,-4.96 3.872,-6.24"
         style="font-size:16px;font-variant:normal;font-weight:bold;font-stretch:normal;text-align:start;line-height:125%;writing-mode:lr-tb;text-anchor:start;font-family:Cabin;-inkscape-font-specification:Cabin Bold"
         id="path3799" />
    </g>
  </g>
</svg>
